<?xml version="1.0" standalone="no"?>
<!DOCTYPE svg PUBLIC "-//W3C//DTD SVG 20010904//EN"
 "http://www.w3.org/TR/2001/REC-SVG-20010904/DTD/svg10.dtd">
<svg version="1.0" xmlns="http://www.w3.org/2000/svg"
 width="612.000000pt" height="612.000000pt" viewBox="0 0 612.000000 612.000000"
 preserveAspectRatio="xMidYMid meet">
<metadata>
Created by potrace 1.16, written by Peter Selinger 2001-2019
</metadata>
<g transform="translate(0.000000,612.000000) scale(0.100000,-0.100000)"
fill="#000000" stroke="none">
<path d="M2701 6104 c-361 -44 -713 -152 -1041 -320 -202 -103 -191 -92 -147
-144 47 -55 55 -95 29 -152 -34 -78 -113 -128 -202 -128 -70 0 -107 22 -131
76 -11 24 -23 44 -27 44 -19 0 -352 -303 -352 -320 0 -5 -28 -37 -63 -72 -99
-98 -357 -458 -357 -496 0 -10 66 -38 104 -44 24 -4 41 -30 33 -52 -9 -23 -51
-20 -120 8 l-58 24 -56 -111 c-194 -387 -313 -872 -313 -1272 l0 -130 147 -65
c260 -113 290 -129 303 -161 34 -80 -43 -199 -129 -199 -11 0 -67 21 -123 46
-57 26 -121 54 -144 64 l-40 18 8 -62 c86 -648 388 -1268 847 -1739 464 -476
1062 -783 1734 -889 125 -20 179 -23 457 -22 273 0 333 3 452 21 168 27 355
70 386 90 13 8 29 12 35 10 20 -6 303 95 388 139 16 8 31 14 34 14 3 0 31 14
63 30 189 101 232 125 275 156 26 19 50 34 53 34 6 0 91 59 118 81 6 5 41 31
77 58 36 27 83 66 105 87 21 21 48 43 59 49 11 7 19 16 18 22 -1 6 11 23 27
38 17 16 30 25 30 21 0 -4 37 30 83 75 45 45 82 84 82 88 0 12 47 72 52 67 3
-3 25 18 49 47 50 59 56 99 24 140 -11 14 -20 30 -20 36 0 16 -55 48 -115 67
-27 9 -63 25 -80 34 -40 24 -320 164 -370 185 -91 38 -209 76 -282 91 -43 9
-98 24 -123 34 -66 25 -117 41 -179 55 -31 7 -92 27 -136 44 -44 17 -116 40
-159 51 -44 11 -88 28 -99 37 -21 20 -71 125 -87 183 -12 46 -57 108 -127 176
-30 30 -58 68 -64 86 -13 46 -11 213 3 284 8 44 24 76 62 129 28 39 68 104 88
146 24 51 48 85 70 100 60 41 99 91 142 178 61 125 68 156 63 306 -4 118 -6
130 -26 143 -30 20 -28 72 4 102 27 26 31 50 13 79 -9 15 -9 28 1 59 16 47 10
151 -14 267 -9 44 -25 121 -34 170 -11 53 -29 109 -44 135 -15 25 -27 52 -27
61 0 38 -128 177 -250 274 -84 66 -199 137 -210 130 -9 -6 -29 5 -103 53 -31
21 -50 25 -104 25 -41 -1 -68 -5 -73 -13 -5 -8 -19 -10 -41 -6 -19 4 -45 7
-59 7 -72 -1 -85 0 -88 9 -2 6 -16 10 -30 10 -21 0 -24 2 -12 10 13 9 13 10 0
10 -13 0 -13 1 0 10 13 9 13 10 0 10 -13 0 -13 1 0 10 13 9 13 10 0 10 -13 0
-13 1 0 10 13 9 13 10 0 10 -13 0 -13 1 0 10 13 9 13 10 0 10 -13 0 -13 1 0
10 13 9 13 10 0 10 -13 0 -13 1 0 10 13 9 13 10 0 10 -13 0 -13 1 0 10 13 9
13 10 0 10 -13 0 -13 1 0 10 13 9 13 10 0 10 -13 0 -13 1 0 10 13 9 13 10 0
10 -13 0 -13 1 0 10 13 9 13 10 0 10 -13 0 -13 1 0 10 13 9 13 10 0 10 -13 0
-13 1 0 10 13 9 13 10 0 10 -13 0 -13 1 0 10 13 9 13 10 0 10 -13 0 -13 1 0
10 13 9 13 10 0 10 -13 0 -13 1 0 10 13 9 13 10 0 10 -13 0 -13 1 0 10 13 9
13 10 0 10 -13 0 -13 1 0 10 13 9 13 10 0 10 -13 0 -13 1 0 10 13 9 13 10 0
10 -13 0 -13 1 0 10 13 9 13 10 0 10 -13 0 -13 1 0 10 13 9 13 10 0 10 -13 0
-13 1 0 10 13 9 13 10 0 10 -13 0 -13 1 0 10 13 9 13 10 0 10 -13 0 -13 1 0
10 13 9 13 10 0 10 -13 0 -13 1 0 10 13 9 13 10 0 10 -13 0 -13 1 0 10 13 9
13 10 0 10 -13 0 -13 1 0 10 13 9 13 10 0 10 -13 0 -13 1 0 10 13 9 13 10 0
10 -13 0 -13 1 0 10 13 9 13 10 0 10 -13 0 -13 1 0 10 13 9 13 10 0 10 -13 0
-13 1 0 10 13 9 13 10 0 10 -13 0 -13 1 0 10 13 9 13 10 0 10 -13 0 -13 1 0
10 13 9 13 10 0 10 -13 0 -13 1 0 10 13 9 13 10 0 10 -13 0 -13 1 0 10 13 9
13 10 0 10 -13 0 -13 1 0 10 13 9 13 10 0 10 -13 0 -13 1 0 10 13 9 13 10 0
10 -13 0 -13 1 0 10 13 9 13 10 0 10 -12 0 -13 2 -1 9 11 7 11 9 0 14 -11 4
-11 6 1 6 13 1 13 2 0 11 -13 9 -13 10 0 10 13 0 13 1 0 10 -13 9 -13 10 0 10
13 0 13 1 0 10 -13 9 -13 10 0 10 13 0 13 1 0 10 -13 9 -13 10 0 10 13 0 13 1
0 10 -13 9 -13 10 0 10 13 0 13 1 0 10 -13 9 -13 10 0 10 13 0 13 1 0 10 -13
9 -13 10 0 10 13 0 13 1 0 10 -13 9 -13 10 0 10 13 0 13 1 0 10 -13 9 -13 10
0 10 13 0 13 1 0 10 -13 9 -13 10 0 10 13 0 13 1 0 10 -13 9 -13 10 0 10 13 0
13 1 0 10 -13 9 -13 10 0 10 13 0 13 1 0 10 -13 9 -13 10 0 10 13 0 13 1 0 10
-13 9 -13 10 0 10 13 0 13 1 0 10 -11 7 -12 10 -2 10 10 0 10 3 -2 15 -18 18
-95 18 -255 -1z m-462 -778 c65 -65 112 -120 109 -128 -5 -26 -215 -238 -235
-238 -21 0 -243 218 -243 240 0 19 220 240 240 240 8 0 66 -51 129 -114z
m-634 -790 l90 -11 -1 -110 c0 -60 -4 -149 -8 -197 -7 -73 -11 -88 -27 -93
-39 -13 -42 1 -35 144 4 75 9 150 12 167 l6 31 -149 13 c-81 7 -156 17 -165
22 -10 5 -18 20 -18 35 l0 26 103 -8 c56 -4 143 -12 192 -19z m1960 -26 c13 0
31 -7 40 -16 8 -9 24 -14 35 -11 29 8 57 -19 68 -65 6 -24 13 -52 17 -63 4
-13 -1 -29 -14 -44 -24 -28 -62 -23 -89 11 -28 34 -72 78 -80 78 -13 0 -32 53
-32 88 0 27 3 33 16 28 9 -3 26 -6 39 -6z m-344 -101 c38 -8 49 -15 49 -30 0
-10 6 -19 14 -19 8 0 23 -13 33 -30 9 -16 21 -30 25 -30 4 0 8 -5 8 -11 0 -7
-15 -10 -40 -7 -30 3 -40 0 -40 -11 0 -11 -4 -10 -19 3 -11 10 -25 15 -30 11
-18 -11 -12 -24 13 -31 26 -6 26 -34 0 -34 -32 0 -10 -31 36 -52 27 -13 52
-30 55 -39 3 -10 22 -19 45 -23 22 -3 40 -11 40 -16 0 -6 4 -10 9 -10 6 0 21
-10 35 -23 23 -22 24 -24 7 -34 -10 -6 -49 -13 -87 -14 -96 -3 -129 -15 -145
-53 -11 -23 -20 -30 -37 -29 -15 2 -21 -1 -16 -8 4 -7 22 -9 48 -5 22 4 86 9
141 12 83 5 107 3 140 -11 22 -10 46 -17 53 -16 6 1 12 -7 12 -19 0 -12 7 -20
18 -20 22 0 47 -49 28 -56 -6 -2 -41 1 -76 9 -113 23 -288 -1 -273 -39 2 -6
-10 -22 -26 -34 -44 -31 -40 -50 10 -50 35 0 40 -3 34 -19 -4 -15 3 -20 42
-31 27 -6 54 -14 61 -16 29 -8 9 13 -23 25 -44 16 -45 31 -2 32 69 3 117 -13
117 -37 0 -13 31 -24 68 -24 12 0 22 -4 22 -10 0 -10 -28 -13 -87 -10 -17 1
-45 -6 -62 -15 -18 -9 -35 -13 -40 -10 -5 2 -12 -3 -16 -13 -6 -16 -7 -16 -16
0 -5 9 -23 19 -39 23 -63 14 -133 111 -128 178 4 67 -19 61 -57 -14 -16 -31
-32 -49 -43 -49 -10 0 -28 -11 -40 -25 -25 -29 -60 -33 -68 -7 -3 9 -10 24
-15 32 -5 8 -13 25 -18 36 -15 33 -56 73 -68 66 -16 -11 -33 -49 -33 -75 0
-23 -53 -87 -73 -87 -4 0 -15 7 -23 15 -13 13 -12 15 11 21 18 4 24 11 20 21
-4 12 1 14 20 11 35 -7 33 19 -6 77 -35 52 -57 66 -108 69 -20 1 -43 6 -51 11
-8 5 -59 8 -112 8 -78 -2 -98 1 -98 12 0 7 10 15 23 17 12 2 22 10 22 18 0 40
135 61 229 36 34 -10 83 -16 107 -14 39 3 44 6 44 28 0 19 -6 26 -24 28 -12 2
-42 14 -66 27 -24 12 -64 26 -89 29 -30 5 -46 12 -46 22 0 8 -4 14 -10 14 -15
0 -12 19 4 36 8 8 22 11 30 8 11 -4 16 -1 16 10 0 10 15 23 34 31 18 8 36 21
39 30 4 8 12 15 20 15 7 0 25 6 39 12 21 10 26 18 21 38 -3 17 1 31 11 39 17
15 22 41 7 41 -5 0 -11 -5 -13 -12 -5 -15 -28 -1 -28 18 0 8 10 14 26 14 18 0
25 4 21 14 -3 8 1 17 9 20 27 10 44 7 44 -9 0 -21 13 -19 34 4 10 11 28 22 40
25 31 7 200 -3 257 -15z m-2427 -225 c9 -3 16 -16 16 -28 0 -24 -73 -276 -88
-302 -6 -12 -64 -35 -163 -66 -84 -26 -158 -48 -165 -48 -6 0 -17 6 -23 14
-10 12 -3 49 33 176 25 90 48 165 51 168 4 5 299 90 317 91 3 1 13 -2 22 -5z
m1892 -465 c9 -16 -15 -29 -53 -29 -23 0 -33 -5 -33 -15 0 -12 13 -15 55 -15
87 0 85 -39 -5 -82 l-34 -17 27 -6 c16 -4 45 -5 66 -1 33 5 39 3 44 -14 3 -13
0 -20 -8 -20 -20 0 -29 -20 -15 -33 9 -9 14 -8 24 6 19 25 23 22 29 -25 5 -35
1 -52 -23 -93 -19 -33 -29 -68 -32 -104 -3 -52 -2 -55 30 -72 l32 -19 0 24 c0
30 24 40 53 22 12 -8 40 -18 61 -22 42 -7 43 -1 3 44 -15 16 -32 22 -63 22
-24 0 -46 -4 -49 -10 -11 -17 -24 -11 -31 15 -7 27 25 62 82 90 29 15 64 69
64 100 0 8 5 15 10 15 6 0 10 5 10 11 0 20 50 59 76 59 13 0 24 -4 24 -10 0
-5 6 -10 14 -10 15 0 29 -27 21 -40 -3 -5 -1 -11 5 -15 5 -3 10 -18 10 -33 0
-32 25 -72 45 -72 22 0 72 -48 79 -76 8 -32 -8 -54 -26 -36 -7 7 -29 12 -51
12 -28 0 -46 -7 -70 -30 -26 -24 -28 -30 -15 -35 9 -4 39 3 66 15 52 23 75 20
70 -7 -4 -23 14 -25 39 -5 37 28 41 98 9 165 -28 60 -32 77 -16 77 6 0 10 24
10 54 0 52 1 54 30 58 20 3 37 -2 56 -19 23 -19 35 -22 78 -19 28 3 52 10 54
16 2 5 13 10 25 10 12 0 37 9 55 20 26 16 100 29 103 18 0 -2 4 -50 9 -108 5
-58 12 -131 16 -164 8 -71 -10 -165 -34 -173 -23 -9 -33 -25 -26 -45 6 -21
-26 -32 -72 -23 -27 5 -34 3 -34 -10 0 -9 -9 -28 -20 -42 -11 -14 -20 -32 -20
-39 0 -23 -13 -16 -57 31 -42 46 -79 58 -89 30 -8 -20 -60 -28 -119 -16 -62
12 -143 -3 -167 -31 -12 -13 -24 -17 -38 -13 -11 4 -20 2 -20 -4 0 -20 -25
-11 -35 12 -9 20 -16 22 -92 20 -45 -1 -91 -7 -103 -13 -25 -13 -54 4 -46 27
4 10 1 13 -13 8 -13 -4 -23 0 -30 12 -9 16 -10 16 -11 1 0 -9 -9 -20 -20 -23
-11 -3 -20 -11 -20 -16 0 -5 -7 -9 -15 -9 -23 0 -36 36 -29 78 8 50 -8 61 -35
26 -16 -20 -21 -40 -20 -78 2 -82 12 -111 35 -109 13 1 27 -9 39 -30 27 -44
46 -101 36 -105 -9 -3 9 -75 22 -88 4 -4 7 -14 7 -21 0 -8 7 -21 15 -29 8 -9
15 -23 15 -32 0 -17 58 -52 85 -52 26 0 48 73 28 93 -3 4 -8 20 -10 37 -3 34
17 44 83 38 31 -2 40 -8 45 -28 6 -23 7 -23 8 -3 1 12 6 25 11 28 20 12 10 35
-16 35 -16 0 -24 5 -21 13 2 6 10 11 16 10 7 -2 11 12 11 37 l0 39 66 0 c86
-1 116 -14 112 -48 -2 -20 2 -27 20 -29 12 -2 22 -7 22 -11 0 -16 -40 -43 -54
-38 -9 4 -18 2 -21 -3 -4 -6 -11 -10 -16 -10 -6 0 -7 5 -3 11 4 7 0 9 -14 5
-11 -4 -23 -2 -27 4 -5 8 -11 8 -21 -1 -20 -16 -18 -24 17 -59 33 -32 56 -35
51 -6 -4 20 14 21 22 1 9 -25 26 -17 27 13 0 26 1 26 11 5 6 -12 21 -24 34
-27 28 -7 22 -36 -7 -36 -16 0 -18 -4 -10 -17 9 -19 11 -25 11 -45 0 -6 3 -8
7 -5 3 4 13 -2 21 -14 18 -27 60 -43 77 -29 8 6 17 6 29 -3 14 -10 15 -18 7
-40 -6 -15 -15 -27 -21 -27 -5 0 -26 -17 -45 -37 l-36 -38 -142 -2 c-106 -1
-149 2 -171 13 -16 8 -34 14 -41 14 -18 0 -65 44 -65 60 0 8 -16 33 -35 54
-19 22 -35 44 -35 49 0 5 -12 21 -28 35 -15 15 -34 41 -42 57 -8 17 -22 41
-32 54 -10 13 -18 30 -18 37 0 23 -53 102 -77 115 -13 7 -23 21 -23 31 0 10
-7 21 -15 24 -17 7 -21 74 -4 74 6 0 8 9 3 23 -9 29 -6 27 -39 18 -27 -7 -30
-11 -27 -47 2 -21 10 -44 19 -51 19 -15 9 -46 -13 -41 -9 2 -20 10 -24 18 -4
8 -15 30 -24 48 -10 18 -15 39 -12 47 3 8 1 17 -4 20 -6 4 -10 13 -10 22 0 12
3 13 15 3 18 -15 42 -3 26 13 -14 14 -15 144 -1 152 6 3 10 17 10 30 0 13 -4
27 -10 30 -5 3 -10 15 -10 26 0 10 5 19 10 19 6 0 10 7 10 15 0 8 -4 15 -10
15 -5 0 -10 16 -10 35 0 32 2 35 29 35 25 0 31 5 36 31 5 23 3 34 -11 43 -12
9 -14 15 -6 20 7 4 12 21 12 37 0 19 9 38 25 53 13 13 22 26 18 29 -3 4 1 7
10 7 10 0 17 5 17 10 0 6 20 10 45 10 45 0 49 4 46 42 -2 12 7 18 31 21 67 8
107 7 114 -4z m-1188 -111 c12 -15 43 -254 35 -274 -5 -15 -30 -20 -125 -30
-78 -7 -73 3 -57 -128 8 -65 8 -91 0 -100 -7 -6 -53 -20 -104 -32 -51 -11 -91
-24 -91 -30 20 -123 26 -196 18 -203 -5 -5 -65 -16 -133 -25 -131 -17 -151
-13 -151 25 0 25 6 28 119 41 115 13 108 3 86 128 -18 103 -21 101 106 125
l90 18 -7 76 c-5 42 -8 94 -9 116 l0 40 95 13 c52 8 96 15 97 16 1 1 -3 47 -9
102 -7 55 -9 108 -5 117 8 20 30 22 45 5z m2184 -600 c8 -22 -13 -113 -28
-121 -8 -4 -14 -14 -14 -21 0 -7 -12 -27 -27 -43 -24 -26 -33 -30 -65 -26 -34
5 -38 8 -38 33 0 16 -5 30 -12 32 -8 3 -4 13 10 29 13 13 21 32 18 41 -6 23
20 23 29 1 6 -17 7 -17 16 0 6 9 8 21 5 26 -7 11 30 44 42 37 6 -3 12 1 16 9
7 18 43 20 48 3z m-204 -95 c2 -73 0 -85 -23 -119 -14 -20 -39 -66 -57 -101
-17 -35 -35 -63 -39 -63 -5 0 -9 -7 -9 -15 0 -14 -11 -19 -37 -16 -7 1 -13 -3
-13 -9 0 -5 -4 -10 -10 -10 -14 0 -13 63 1 94 9 19 8 29 -5 47 -23 33 -20 54
9 67 14 6 25 16 25 22 0 16 71 90 86 90 8 0 14 5 14 12 0 22 35 87 45 84 6 -1
11 -39 13 -83z m-1384 -399 c25 -10 19 -39 -24 -116 -22 -39 -38 -74 -35 -77
4 -3 39 -24 78 -46 59 -33 72 -45 72 -65 0 -38 -27 -36 -109 9 -40 23 -76 41
-79 41 -3 0 -24 -33 -47 -74 -43 -79 -54 -89 -82 -74 -26 13 -22 32 23 110 22
38 38 72 35 75 -3 4 -39 25 -78 47 -52 30 -74 48 -76 64 -6 40 26 38 108 -6
43 -23 80 -42 83 -42 3 0 22 30 43 68 54 97 55 99 88 86z m-1065 -228 c7 -8
18 -50 25 -95 7 -44 15 -83 17 -86 3 -2 33 5 68 16 66 20 91 15 91 -18 0 -25
-131 -417 -144 -431 -7 -7 -20 -10 -29 -6 -18 6 -23 29 -32 146 l-7 76 -55
-19 c-124 -42 -126 -32 -46 216 70 215 82 237 112 201z m2106 -105 c32 -19 37
-54 11 -75 -19 -16 -56 -72 -56 -85 0 -6 9 -11 20 -11 11 0 29 -8 40 -17 11
-10 28 -25 39 -34 10 -9 21 -37 26 -65 9 -65 12 -67 40 -42 16 14 25 32 25 51
0 28 27 88 43 95 4 2 7 9 7 15 0 7 12 17 26 24 20 9 26 9 31 -3 3 -8 11 -14
18 -14 17 0 25 -23 18 -49 -3 -12 0 -28 7 -36 7 -8 10 -24 7 -35 -7 -28 14
-69 37 -72 15 -2 22 -17 32 -63 7 -33 13 -70 13 -83 1 -13 8 -30 16 -38 8 -9
15 -31 15 -49 0 -19 4 -44 9 -57 5 -13 6 -37 4 -54 -4 -28 -10 -33 -44 -38
-22 -4 -50 -17 -65 -33 -15 -15 -32 -28 -38 -29 -35 -7 -122 -46 -140 -63 -27
-25 -119 -61 -156 -61 -20 0 -30 -5 -30 -15 0 -20 -39 -20 -46 0 -5 11 -22 15
-62 15 -58 0 -139 30 -149 56 -3 8 -13 14 -22 14 -10 0 -26 7 -37 15 -10 8
-29 15 -41 15 -13 0 -23 5 -23 11 0 6 -8 8 -19 4 -10 -3 -24 1 -31 10 -7 8
-18 15 -25 15 -6 0 -22 20 -35 45 -27 52 -17 75 30 75 16 0 30 7 34 16 8 22 7
36 -2 30 -4 -2 -14 -1 -22 4 -11 7 -10 11 3 25 10 9 17 21 17 26 0 5 6 9 14 9
8 0 16 6 19 13 2 7 8 8 13 3 5 -5 4 -11 -3 -13 -17 -6 -17 -63 0 -63 8 0 14
13 15 33 0 17 3 57 6 87 3 44 1 59 -14 75 -13 14 -18 35 -17 70 0 28 -8 73
-18 102 -17 48 -17 52 -1 68 10 10 14 25 11 36 -5 16 -1 18 32 16 34 -2 38 -4
35 -28 -2 -18 4 -29 22 -39 14 -7 28 -20 31 -29 8 -26 84 -15 95 13 4 12 20
28 34 35 31 17 33 27 6 49 -12 10 -30 36 -40 59 -17 38 -17 44 -4 58 38 37
179 41 239 6z m286 -978 c5 -5 6 -24 3 -43 -6 -26 -43 -69 -166 -192 -87 -87
-158 -163 -158 -168 0 -20 -37 -9 -62 18 -14 15 -51 52 -83 82 -49 47 -95 119
-95 148 0 4 -14 24 -30 42 -32 36 -46 71 -37 94 6 15 99 11 105 -5 2 -5 11 -9
20 -9 8 0 30 -5 48 -12 35 -12 76 0 100 31 8 10 32 14 80 13 38 -1 92 3 119 8
59 10 142 7 156 -7z m-317 -786 c17 -22 26 -47 26 -71 0 -32 -4 -38 -34 -53
-44 -21 -82 -11 -105 28 -25 41 -10 92 34 117 33 19 53 14 79 -21z"/>
<path d="M2025 5280 l-80 -80 83 -83 82 -82 82 82 83 83 -80 80 c-44 44 -82
80 -85 80 -3 0 -41 -36 -85 -80z"/>
<path d="M507 4043 c-11 -19 -59 -204 -55 -209 3 -3 53 10 112 28 98 30 106
35 106 58 0 34 -43 96 -80 115 -31 16 -76 20 -83 8z"/>
<path d="M968 2025 c-14 -47 -22 -85 -18 -85 3 0 28 7 53 16 58 20 77 9 77
-44 0 -22 4 -32 9 -27 9 10 51 138 51 155 0 5 -22 1 -49 -8 -56 -17 -81 -8
-81 32 -1 57 -18 41 -42 -39z"/>
<path d="M1355 5586 c-73 -32 -109 -118 -63 -150 42 -30 116 -10 161 44 36 42
42 67 23 95 -19 29 -70 33 -121 11z"/>
<path d="M6 2909 c-9 -45 -7 -88 4 -109 5 -10 77 -47 160 -84 165 -73 175 -73
206 -15 31 61 24 66 -171 156 -99 45 -183 83 -186 83 -4 0 -9 -14 -13 -31z"/>
</g>
</svg>
